<svg width="590" height="136" viewBox="0 0 590 136" fill="none" xmlns="http://www.w3.org/2000/svg">
<path d="M181.953 76.3359L172.688 85.8516V100.789H161.84V42.3711H172.688V72.332L201.566 42.3711H213.75L189.215 68.4922L215.254 100.789H202.566L181.953 76.3359Z" fill="white"/>
<path d="M219.602 100.789H230.031V56.2266H219.602V100.789Z" fill="white"/>
<path d="M266.266 98.3711C265.043 99.3711 263.555 100.121 261.801 100.625C260.047 101.125 258.199 101.375 256.254 101.375C251.355 101.375 247.574 100.098 244.902 97.5352C242.23 94.9766 240.895 91.25 240.895 86.3516V46.375H251.328V56.5586H263.262V64.9062H251.328V86.1016C251.328 88.2734 251.871 89.9297 252.953 91.0664C254.039 92.2109 255.555 92.7812 257.504 92.7812C259.84 92.7812 261.789 92.168 263.344 90.9414L266.266 98.3711Z" fill="white"/>
<path d="M283.336 67.8242C280.969 70.3281 279.789 73.6953 279.789 77.9219V78.0078L304.992 73.168C304.27 70.4414 302.809 68.2422 300.609 66.5742C298.414 64.9062 295.754 64.0703 292.641 64.0703C288.801 64.0703 285.699 65.3203 283.336 67.8242ZM306.66 87.6875L312.168 94.1133C310.219 96.5078 307.719 98.3164 304.66 99.5391C301.598 100.762 298.148 101.375 294.309 101.375C289.414 101.375 285.102 100.402 281.375 98.4531C277.645 96.5078 274.766 93.793 272.734 90.3164C270.703 86.8398 269.688 82.9023 269.688 78.5078C269.688 74.168 270.676 70.2578 272.652 66.7812C274.625 63.3047 277.355 60.5938 280.832 58.6445C284.309 56.6992 288.246 55.7227 292.641 55.7227C296.812 55.7227 300.609 56.6289 304.031 58.4375C307.453 60.2461 310.164 62.832 312.168 66.1992C314.172 69.5664 315.176 73.5 315.176 78.0078L281.039 84.6836C282.094 87.2422 283.793 89.1914 286.129 90.5273C288.465 91.8633 291.277 92.5273 294.559 92.5273C299.402 92.5273 303.434 90.918 306.66 87.6875Z" fill="white"/>
<path d="M393.547 60.6055C396.828 63.8633 398.473 68.7422 398.473 75.2539V100.793H388.039V76.5859C388.039 72.6953 387.176 69.7578 385.449 67.7852C383.727 65.8086 381.25 64.8203 378.023 64.8203C374.52 64.8203 371.707 65.9766 369.594 68.2852C367.48 70.5938 366.422 73.8906 366.422 78.1719V100.793H355.992V76.5859C355.992 72.6953 355.129 69.7578 353.402 67.7852C351.68 65.8086 349.203 64.8203 345.977 64.8203C342.414 64.8203 339.594 65.9609 337.504 68.2422C335.418 70.5234 334.375 73.8359 334.375 78.1719V100.793H323.941V56.2227H333.875V61.9023C335.543 59.8984 337.629 58.3672 340.137 57.3086C342.637 56.2539 345.418 55.7227 348.48 55.7227C351.816 55.7227 354.781 56.3516 357.367 57.6016C359.957 58.8555 362 60.7031 363.5 63.1523C365.34 60.8164 367.703 58.9922 370.598 57.6836C373.488 56.3789 376.688 55.7227 380.195 55.7227C385.812 55.7227 390.266 57.3516 393.547 60.6055Z" fill="white"/>
<path d="M440.539 88.6055C443.043 86.0469 444.293 82.6797 444.293 78.5078C444.293 74.3359 443.043 70.9688 440.539 68.4102C438.035 65.8516 434.863 64.5703 431.027 64.5703C427.188 64.5703 424.027 65.8516 421.551 68.4102C419.078 70.9688 417.84 74.3359 417.84 78.5078C417.84 82.6797 419.078 86.0469 421.551 88.6055C424.027 91.168 427.188 92.4453 431.027 92.4453C434.863 92.4453 438.035 91.168 440.539 88.6055ZM454.562 56.2266V100.793H444.629V95.0312C442.902 97.1484 440.777 98.7344 438.246 99.7891C435.711 100.844 432.918 101.375 429.859 101.375C425.516 101.375 421.637 100.43 418.215 98.5391C414.793 96.6484 412.121 93.9766 410.203 90.5273C408.285 87.0781 407.324 83.0703 407.324 78.5078C407.324 73.9453 408.285 69.9531 410.203 66.5312C412.121 63.1094 414.793 60.4531 418.215 58.5625C421.637 56.6719 425.516 55.7227 429.859 55.7227C432.75 55.7227 435.406 56.2266 437.828 57.2266C440.246 58.2266 442.348 59.7031 444.129 61.6484V56.2266H454.562Z" fill="white"/>
<path d="M482.707 81.6797L474.945 89.0234V100.789H464.512V38.8633H474.945V76.2539L496.559 56.2266H509.078L490.469 74.918L510.832 100.789H498.148L482.707 81.6797Z" fill="white"/>
<path d="M524.484 67.8242C522.121 70.3281 520.938 73.6953 520.938 77.9219V78.0078L546.145 73.168C545.418 70.4414 543.957 68.2422 541.762 66.5742C539.562 64.9062 536.906 64.0703 533.789 64.0703C529.953 64.0703 526.852 65.3203 524.484 67.8242ZM547.812 87.6875L553.32 94.1133C551.371 96.5078 548.867 98.3164 545.809 99.5391C542.75 100.762 539.301 101.375 535.461 101.375C530.562 101.375 526.25 100.402 522.523 98.4531C518.797 96.5078 515.918 93.793 513.887 90.3164C511.855 86.8398 510.84 82.9023 510.84 78.5078C510.84 74.168 511.828 70.2578 513.805 66.7812C515.777 63.3047 518.504 60.5938 521.98 58.6445C525.457 56.6992 529.395 55.7227 533.789 55.7227C537.965 55.7227 541.762 56.6289 545.184 58.4375C548.605 60.2461 551.316 62.832 553.32 66.1992C555.324 69.5664 556.324 73.5 556.324 78.0078L522.191 84.6836C523.246 87.2422 524.945 89.1914 527.281 90.5273C529.617 91.8633 532.426 92.5273 535.711 92.5273C540.551 92.5273 544.586 90.918 547.812 87.6875Z" fill="white"/>
<path d="M589.637 55.7227V65.6562C588.746 65.4883 587.941 65.4062 587.219 65.4062C583.156 65.4062 579.984 66.5898 577.703 68.9531C575.422 71.3164 574.281 74.7266 574.281 79.1758V100.793H563.848V56.2266H573.781V62.7344C576.785 58.0625 582.07 55.7227 589.637 55.7227Z" fill="white"/>
<path d="M232.098 45.0117L224.816 52.2969L217.535 45.0117L224.816 37.7305L232.098 45.0117Z" fill="white"/>
<path d="M121.398 0.25C119.742 0.25 118.121 0.605469 116.578 1.3125L44.9844 33.9141L20.8594 10.4102C18.6797 7.9375 15.5977 6.53125 12.3008 6.53125C5.96094 6.53125 0.800781 11.6758 0.800781 18V124.047C0.800781 130.371 5.95703 135.52 12.293 135.52C15.332 135.52 18.2031 134.324 20.375 132.156L20.4141 132.113L20.457 132.07L129.504 19.793C132.754 16.5 133.719 11.6445 131.961 7.39453C130.164 3.05469 126.016 0.25 121.398 0.25ZM121.398 8.21875C124.223 8.21875 126.168 11.8555 123.816 14.2109L14.7383 126.52C14.0234 127.23 13.1484 127.551 12.293 127.551C10.4961 127.551 8.77344 126.152 8.77344 124.047V18C8.77344 15.8633 10.5117 14.5 12.3008 14.5C13.2891 14.5 14.2891 14.918 15.0195 15.8477L41.2734 41.4258C41.9531 42.293 42.9766 42.7695 44.0273 42.7695C44.5156 42.7695 45.0117 42.6641 45.4766 42.4492L119.891 8.5625C120.406 8.32422 120.914 8.21875 121.398 8.21875Z" fill="white"/>
<path d="M128.836 115.25L91.1135 78.7536C89.551 77.2418 87.0627 77.2614 85.5237 78.8004C83.9534 80.3746 83.9729 82.9332 85.5705 84.4801L123.516 121.195C126.184 123.285 124.594 127.445 121.41 127.445C121.227 127.445 121.043 127.429 120.848 127.402L47.2971 119.082C46.133 118.949 44.969 119.355 44.1369 120.187C41.8635 122.461 43.2112 126.355 46.4026 126.738C66.7737 129.191 119.856 135.308 119.856 135.308C120.371 135.379 120.895 135.414 121.41 135.414C126.27 135.414 130.606 132.3 132.203 127.672C133.762 123.152 132.438 118.336 128.836 115.25Z" fill="white"/>
</svg>
