<svg width="3581" height="905" viewBox="0 0 3581 905" fill="none" xmlns="http://www.w3.org/2000/svg">
<path d="M1551.4 392.259C1531 363.725 1503.61 349.458 1469.22 349.458C1455.23 349.458 1441.54 352.952 1428.13 359.94C1414.73 366.928 1408.02 378.283 1408.02 394.006C1408.02 406.817 1413.56 416.135 1424.63 421.958C1435.71 427.781 1449.7 432.731 1466.6 436.807C1483.5 440.884 1501.57 445.251 1520.8 449.91C1540.62 453.986 1558.98 460.683 1575.88 470C1592.78 478.735 1606.77 490.964 1617.84 506.687C1628.92 522.41 1634.45 543.956 1634.45 571.325C1634.45 596.366 1628.92 617.62 1617.84 635.09C1607.35 651.978 1593.36 665.663 1575.88 676.145C1558.98 686.627 1539.74 694.197 1518.18 698.855C1496.61 703.514 1475.05 705.843 1453.48 705.843C1420.85 705.843 1390.83 701.185 1363.44 691.868C1336.04 682.55 1311.56 665.663 1290 641.205L1359.94 575.693C1373.35 590.833 1387.62 603.353 1402.78 613.253C1418.51 622.57 1437.46 627.229 1459.6 627.229C1467.18 627.229 1475.05 626.356 1483.21 624.609C1491.37 622.862 1498.95 619.95 1505.94 615.874C1512.93 611.797 1518.47 606.847 1522.55 601.024C1527.21 594.618 1529.54 587.339 1529.54 579.187C1529.54 564.629 1524.01 553.855 1512.93 546.868C1501.86 539.88 1487.87 534.347 1470.97 530.271C1454.07 525.612 1435.71 521.536 1415.89 518.042C1396.66 513.966 1378.59 507.851 1361.69 499.699C1344.79 490.964 1330.8 479.026 1319.72 463.886C1308.65 448.745 1303.11 427.781 1303.11 400.994C1303.11 377.701 1307.78 357.61 1317.1 340.723C1327.01 323.253 1339.83 308.986 1355.57 297.922C1371.31 286.857 1389.37 278.705 1409.77 273.464C1430.17 268.223 1450.86 265.602 1471.84 265.602C1499.82 265.602 1527.5 270.552 1554.9 280.452C1582.29 289.769 1604.44 306.074 1621.34 329.367L1551.4 392.259Z" fill="#FBBF24"/>
<path d="M1684.87 326.165V300.688V276.084V154.669H1789.78V276.084H1905.18V365.181H1789.78V548.614C1789.78 569.578 1793.57 586.175 1801.15 598.404C1809.31 610.633 1825.04 616.747 1848.36 616.747C1857.68 616.747 1867.88 615.874 1878.95 614.127C1890.03 611.797 1898.77 608.303 1905.18 603.645V691.868C1894.11 697.109 1880.41 700.602 1864.09 702.349C1848.36 704.679 1834.37 705.843 1822.13 705.843C1794.15 705.843 1771.13 702.641 1753.06 696.235C1735.58 690.412 1721.59 681.386 1711.1 669.157C1701.19 656.345 1694.2 640.623 1690.12 621.988C1686.62 603.353 1684.87 581.807 1684.87 557.349V365.181V326.165Z" fill="#FBBF24"/>
<path d="M2326.28 695.361H2226.62V628.102H2224.87C2214.96 649.066 2199.81 667.41 2179.41 683.133C2159.01 698.273 2131.33 705.843 2096.36 705.843C2068.38 705.843 2044.48 701.476 2024.67 692.741C2005.43 683.424 1989.7 671.195 1977.46 656.054C1965.22 640.331 1956.48 622.57 1951.23 602.771C1945.98 582.972 1943.36 562.299 1943.36 540.753V276.084H2048.27V488.343C2048.27 499.99 2048.85 513.092 2050.02 527.651C2051.19 541.627 2054.1 555.02 2058.76 567.831C2064.01 580.06 2071.58 590.542 2081.49 599.277C2091.98 607.43 2106.55 611.506 2125.21 611.506C2142.69 611.506 2157.26 608.594 2168.92 602.771C2181.16 596.948 2191.07 589.086 2198.64 579.187C2206.8 569.287 2212.63 557.932 2216.13 545.12C2219.62 532.309 2221.37 518.916 2221.37 504.94V276.084H2326.28V485.723V695.361Z" fill="#FBBF24"/>
<path d="M2401.66 276.084H2506.57V342.47H2508.32C2519.97 318.012 2536.58 299.086 2558.15 285.693C2579.71 272.299 2604.48 265.602 2632.46 265.602C2638.87 265.602 2644.99 266.185 2650.82 267.349C2657.23 268.514 2663.64 269.97 2670.05 271.717V373.042C2661.31 370.713 2652.57 368.966 2643.83 367.801C2635.67 366.054 2627.51 365.181 2619.35 365.181C2594.87 365.181 2575.05 369.839 2559.9 379.157C2545.33 387.892 2533.96 398.082 2525.8 409.729C2518.23 421.376 2512.98 433.022 2510.07 444.669C2507.73 456.315 2506.57 465.05 2506.57 470.874V695.361H2401.66V276.084Z" fill="#FBBF24"/>
<path d="M3014.59 632.47H3012.84C2997.69 658.092 2977.29 676.727 2951.64 688.373C2926 700.02 2898.31 705.843 2868.59 705.843C2835.95 705.843 2806.81 700.311 2781.16 689.247C2756.1 677.6 2734.54 661.878 2716.47 642.078C2698.4 622.279 2684.71 598.986 2675.38 572.199C2666.06 545.412 2661.39 516.586 2661.39 485.723C2661.39 454.859 2666.35 426.034 2676.26 399.247C2686.16 372.46 2699.86 349.167 2717.34 329.367C2735.41 309.568 2756.98 294.137 2782.04 283.072C2807.1 271.426 2834.49 265.602 2864.22 265.602C2884.03 265.602 2901.52 267.641 2916.67 271.717C2931.83 275.793 2945.23 281.034 2956.89 287.44C2968.55 293.845 2978.45 300.833 2986.61 308.404C2994.77 315.392 3001.48 322.38 3006.72 329.367H3009.34V35H3114.25V695.361H3014.59V632.47ZM2766.3 485.723C2766.3 502.028 2768.93 517.751 2774.17 532.892C2780 548.032 2788.16 561.426 2798.65 573.072C2809.72 584.719 2822.84 594.036 2837.99 601.024C2853.14 608.012 2870.34 611.506 2889.57 611.506C2908.81 611.506 2926 608.012 2941.15 601.024C2956.31 594.036 2969.13 584.719 2979.62 573.072C2990.69 561.426 2998.85 548.032 3004.1 532.892C3009.93 517.751 3012.84 502.028 3012.84 485.723C3012.84 469.418 3009.93 453.695 3004.1 438.554C2998.85 423.414 2990.69 410.02 2979.62 398.374C2969.13 386.727 2956.31 377.41 2941.15 370.422C2926 363.434 2908.81 359.94 2889.57 359.94C2870.34 359.94 2853.14 363.434 2837.99 370.422C2822.84 377.41 2809.72 386.727 2798.65 398.374C2788.16 410.02 2780 423.414 2774.17 438.554C2768.93 453.695 2766.3 469.418 2766.3 485.723Z" fill="#FBBF24"/>
<path d="M3132.51 276.084H3247.91L3365.06 566.958H3366.81L3471.72 276.084H3581L3382.55 785.331C3374.97 805.131 3366.52 822.309 3357.19 836.867C3348.45 852.008 3337.96 864.528 3325.72 874.428C3313.48 884.91 3298.91 892.48 3282.01 897.139C3265.69 902.38 3245.87 905 3222.56 905C3195.17 905 3168.35 901.506 3142.13 894.518L3155.24 800.181C3163.4 803.092 3171.85 805.422 3180.59 807.169C3189.92 809.498 3199.24 810.663 3208.57 810.663C3221.39 810.663 3232.17 809.498 3240.92 807.169C3249.66 804.839 3256.95 801.054 3262.77 795.813C3269.18 791.155 3274.43 784.749 3278.51 776.596C3282.59 769.026 3286.96 759.709 3291.62 748.645L3311.73 698.855L3132.51 276.084Z" fill="#FBBF24"/>
<path d="M498.065 900C528.813 900 563.003 897.924 598.908 892.243C730.543 871.383 764.581 824.358 764.581 824.358C764.581 824.358 828.149 823.949 842.088 813.309C856.038 802.68 838.399 725.392 838.399 725.392C838.399 725.392 842.498 718.216 845.778 708.103C849.058 697.99 847.461 693.493 847.461 693.493C847.461 693.493 856.448 684.09 854.798 666.092C853.168 648.104 844.138 646.06 844.138 646.06C844.138 646.06 839.219 633.795 835.529 626.834C831.839 619.884 828.969 615.387 828.969 615.387C828.969 615.387 834.417 590.525 821.234 568.395C808.05 546.276 26.2804 516.217 26.2804 516.217C26.2804 516.217 14.1106 569.589 22.3101 612.526C30.5096 655.462 51.8392 689.814 51.8392 689.814C51.8392 689.814 42.8089 700.852 51.8392 723.756C60.8586 746.661 123.196 815.762 203.573 854.212C261.682 882.001 316.813 885.853 342.879 885.853C352.869 885.853 358.587 885.283 358.587 885.283C358.587 885.283 416.081 900 498.065 900Z" fill="black" fill-opacity="0.8"/>
<path d="M807.64 240.06C808.007 245.267 809.054 249.657 810.23 251.884C810.78 252.927 811.373 253.562 811.913 253.519C813.779 253.379 814.826 247.128 814.275 239.608C813.736 232.034 811.826 226.053 810.003 226.15C809.194 226.236 808.601 227.419 808.148 229.27C807.554 231.852 807.328 235.714 807.64 240.06Z" fill="white"/>
<path d="M587.364 352.646C580.869 353.732 576.37 359.176 577.319 364.792C578.279 370.408 584.267 374.087 590.773 372.99C597.268 371.903 601.767 366.47 600.861 360.854C599.9 355.228 593.859 351.559 587.364 352.646Z" fill="white"/>
<path d="M808.784 278.661C809.324 277.531 817.189 260.985 814.599 233.669C811.87 205.353 801.739 200.996 801.739 200.996C801.599 201.631 800.65 207.978 802.915 240.469C805.332 274.583 808.73 278.618 808.784 278.661ZM810.23 251.883C809.054 249.656 808.008 245.267 807.641 240.06C807.328 235.713 807.554 231.851 808.148 229.269C808.601 227.419 809.194 226.235 810.003 226.149C811.827 226.052 813.736 232.034 814.276 239.608C814.826 247.128 813.78 253.379 811.913 253.518C811.374 253.561 810.78 252.927 810.23 251.883Z" fill="black"/>
<path d="M587.364 352.646C593.859 351.56 599.901 355.228 600.861 360.855C601.767 366.471 597.268 371.904 590.773 372.991C584.268 374.088 578.28 370.409 577.32 364.793C576.37 359.177 580.869 353.733 587.364 352.646ZM617.217 376.078C617.217 356.681 598.628 340.963 575.734 340.963C552.829 340.963 534.294 356.681 534.294 376.078C534.294 395.465 552.829 411.193 575.734 411.193C598.628 411.193 617.217 395.465 617.217 376.078Z" fill="black"/>
<path d="M812.871 408.289C814.371 385.234 799.051 345.083 799.051 345.083C799.008 345.04 797.281 342.275 791.283 350.882C785.241 359.586 785.964 357.316 772.338 350.516C758.711 343.728 739.809 340.328 723.95 364.481C708.09 388.623 683.006 414.314 669.736 422.468C656.476 430.623 634.888 433.216 634.888 438.1C634.888 442.995 658.742 453.603 683.006 458.132C690.871 459.585 699.502 460.349 708.684 460.445C727.715 460.671 749.347 457.81 773.114 450.924C792.189 445.438 801.78 440.101 806.83 432.753C811.091 426.503 812.192 418.843 812.871 408.289Z" fill="#FB923C"/>
<path d="M39.3029 471.537C35.0737 473.893 18.8041 497.776 34.5774 536.194C52.3898 575.57 73.018 612.955 100.821 648.877L101.36 649.555C101.727 650.018 102.137 650.513 102.59 651.051C116.314 668.006 169.567 728.575 242.09 748.468C326.685 771.663 360.228 751.276 369.851 704.294C379.486 657.312 329.512 587.081 289.205 571.224C248.898 555.366 194.371 551.374 147.752 512.859C101.231 474.344 97.7784 459.896 79.3295 449.428C60.8806 438.96 50.9333 442.091 47.524 452.828C44.1147 463.565 43.845 468.955 39.3029 471.537Z" fill="#F59E0B"/>
<path d="M534.294 376.078C534.294 356.681 552.829 340.963 575.734 340.963C598.628 340.963 617.217 356.681 617.217 376.078C617.217 395.465 598.628 411.193 575.734 411.193C552.829 411.193 534.294 395.465 534.294 376.078ZM333.643 128.367C284.026 216.09 313.102 328.505 347.68 376.39C382.938 425.05 463.541 494.743 571.505 494.743C652.151 494.743 693.138 471.946 708.685 460.445C699.503 460.348 690.872 459.585 683.007 458.132C658.743 453.603 634.889 442.995 634.889 438.1C634.889 433.216 656.477 430.623 669.737 422.468C683.007 414.313 708.091 388.622 723.951 364.481C739.81 340.328 758.712 343.728 772.339 350.516C785.965 357.315 785.242 359.586 791.284 350.882C797.282 342.275 799.009 345.04 799.052 345.083C803.141 327.547 806.83 301.684 808.783 278.704V278.661C808.729 278.618 805.331 274.584 802.914 240.469C800.648 207.979 801.598 201.631 801.738 200.996V200.953C791.197 162.535 763.848 98.1894 679.371 35.9845C561.827 -50.6956 389.756 35.3928 336.319 123.751C335.413 125.29 334.507 126.828 333.643 128.367Z" fill="#FCD34D"/>
<path d="M814.005 611.407C831.634 546.072 817.09 466.47 806.83 432.754C801.781 440.102 792.19 445.438 773.115 450.925C749.347 457.81 727.716 460.672 708.684 460.446C693.137 471.947 652.151 494.743 571.504 494.743C463.54 494.743 382.937 425.051 347.679 376.391C313.101 328.505 284.025 216.091 333.643 128.367C333.643 128.367 201.188 105.624 136.984 114.145C72.7798 122.665 42.1611 157.189 17.1743 220.62C-7.82349 284.052 -7.82349 440.909 32.4836 531.537C33.1633 533.119 33.8861 534.657 34.5766 536.195C18.8033 497.777 35.0729 473.894 39.3021 471.538C43.8442 468.956 44.114 463.566 47.5232 452.829C50.9325 442.092 60.8798 438.961 79.3287 449.429C97.7776 459.897 101.23 474.346 147.751 512.861C194.37 551.376 248.897 555.367 289.204 571.225C329.511 587.083 379.485 657.313 369.85 704.295C360.227 751.277 326.684 771.664 242.089 748.469C169.566 728.577 116.313 668.007 102.589 651.052C137.211 695.462 182.923 737.646 247.721 778.463C368.124 854.406 513.525 847.015 618.619 807.371C723.724 767.726 794.153 685.037 814.005 611.407Z" fill="#FBBF24"/>
</svg>
