<svg width="40" height="48" viewBox="0 0 40 48" fill="none" xmlns="http://www.w3.org/2000/svg">
<g clip-path="url(#clip0)">
<path d="M26.1715 22.2986C26.1957 22.5306 26.0581 22.7332 25.8639 22.7521C25.6708 22.7721 25.4954 22.5999 25.4713 22.369C25.4482 22.1391 25.5847 21.9354 25.7778 21.9155C25.97 21.8966 26.1463 22.0677 26.1715 22.2986Z" fill="white"/>
<path d="M14.2237 21.9155C14.4158 21.9354 14.5523 22.1391 14.5292 22.369C14.5051 22.5999 14.3298 22.7721 14.1366 22.7521C13.9424 22.7332 13.8059 22.5306 13.8311 22.2986C13.8553 22.0677 14.0306 21.8966 14.2237 21.9155Z" fill="white"/>
<path d="M25.4699 22.3688C25.4941 22.5998 25.6694 22.7719 25.8625 22.752C26.0567 22.7331 26.1942 22.5305 26.1701 22.2985C26.1449 22.0676 25.9685 21.8965 25.7764 21.9154C25.5833 21.9353 25.4468 22.1389 25.4699 22.3688ZM24.965 22.9189C24.8842 22.1368 25.3062 21.4524 25.9087 21.3915C26.5112 21.3307 27.0655 21.9175 27.1463 22.6995C27.2282 23.4836 26.8051 24.168 26.2037 24.2289C25.6001 24.2877 25.0469 23.703 24.965 22.9189Z" fill="black"/>
<path d="M14.0923 21.3915C14.6938 21.4524 15.1169 22.1368 15.035 22.9189C14.9542 23.703 14.3999 24.2877 13.7963 24.2289C13.1948 24.168 12.7728 23.4836 12.8537 22.6995C12.9345 21.9175 13.4887 21.3307 14.0923 21.3915ZM14.5301 22.3688C14.5532 22.1389 14.4167 21.9353 14.2246 21.9154C14.0315 21.8965 13.8561 22.0676 13.832 22.2985C13.8068 22.5305 13.9433 22.7331 14.1375 22.752C14.3306 22.7719 14.5059 22.5998 14.5301 22.3688Z" fill="black"/>
<path d="M20.0017 23.5142C20.726 23.5499 21.6676 24.5334 22.2796 25.0719C22.9031 25.623 23.0753 25.686 23.5687 25.77C24.0641 25.855 24.4357 25.981 24.1953 26.277C24.0127 26.5038 23.428 27.247 21.7894 27.585C21.3044 27.6868 20.7281 27.7508 20.0416 27.7561H19.9587C19.2732 27.7487 18.6969 27.6868 18.212 27.585C16.5744 27.247 15.9897 26.5038 15.805 26.277C15.5656 25.981 15.9372 25.855 16.4327 25.77C16.9261 25.686 17.0982 25.623 17.7217 25.0719C18.3337 24.5334 19.2743 23.5499 20.0017 23.5142Z" fill="#FB923C"/>
<path d="M32.7124 33.4422C33.5469 33.7676 34.9997 34.7449 34.9997 37.5361C34.9997 41.3592 32.2925 42.1077 32.2925 42.1077V42.1056C32.2893 42.0951 31.3887 38.483 31.3887 35.8241C31.3887 33.163 32.0122 33.29 32.1424 33.29C32.176 33.29 32.4027 33.3215 32.7124 33.4422Z" fill="#F59E0B"/>
<path d="M8.61105 35.8241C8.61105 38.483 7.71039 42.0951 7.70724 42.1056V42.1077C7.70724 42.1077 5 41.3592 5 37.5361C5 34.7449 6.45387 33.7676 7.2884 33.4422C7.59912 33.3215 7.82376 33.29 7.85945 33.29C7.98751 33.29 8.61105 33.163 8.61105 35.8241Z" fill="#F59E0B"/>
<path d="M15.0337 22.9187C15.1156 22.1367 14.6925 21.4523 14.091 21.3914C13.4874 21.3305 12.9332 21.9173 12.8524 22.6993C12.7715 23.4835 13.1935 24.1679 13.795 24.2288C14.3986 24.2875 14.9529 23.7029 15.0337 22.9187ZM26.2038 24.2288C26.8053 24.1679 27.2283 23.4835 27.1464 22.6993C27.0656 21.9173 26.5113 21.3305 25.9088 21.3914C25.3063 21.4523 24.8843 22.1367 24.9651 22.9187C25.047 23.7029 25.6002 24.2875 26.2038 24.2288ZM28.7389 22.2973C28.7882 22.7623 28.8113 23.2315 28.8113 23.6997C28.8113 25.8558 28.2287 27.3874 27.3459 28.4738C25.3629 30.9134 21.859 31.117 20.001 31.1338C18.1398 31.117 14.6369 30.9134 12.6529 28.4738C11.7711 27.3874 11.1875 25.8558 11.1875 23.6997C11.1875 22.1199 11.4468 20.5159 12.1438 19.0862C12.6813 17.985 13.479 17.0235 14.47 16.2981C15.3318 15.6641 16.3217 15.2148 17.3525 14.9356C18.8211 14.5409 20.3705 14.4863 21.8621 14.7582C22.8804 14.9461 23.8723 15.2915 24.7709 15.8048C25.7954 16.3916 26.6824 17.2009 27.3375 18.1845C28.1542 19.4053 28.5835 20.8445 28.7389 22.2973ZM20.0409 27.7558C20.7274 27.7506 21.3037 27.6865 21.7886 27.5847C23.4273 27.2467 24.012 26.5035 24.1946 26.2768C24.435 25.9807 24.0634 25.8548 23.5679 25.7698C23.0746 25.6858 22.9024 25.6228 22.2789 25.0717C21.6669 24.5332 20.7253 23.5496 20.001 23.5139C19.2735 23.5496 18.333 24.5332 17.721 25.0717C17.0974 25.6228 16.9253 25.6858 16.4319 25.7698C15.9364 25.8548 15.5648 25.9807 15.8042 26.2768C15.9889 26.5035 16.5736 27.2467 18.2112 27.5847C18.6962 27.6865 19.2725 27.7485 19.9579 27.7558H20.0409Z" fill="#FCD34D"/>
<path d="M8.61171 35.8238C8.61171 33.1627 7.98818 33.2897 7.86011 33.2897C7.82442 33.2897 7.59978 33.3212 7.28906 33.442C7.96613 31.9209 9.01795 30.7652 10.0236 29.8677C10.6975 29.2641 11.6129 28.8116 12.6542 28.4736C14.6382 30.9132 18.1411 31.1168 20.0022 31.1336C21.8602 31.1168 25.3642 30.9132 27.3471 28.4736C28.3906 28.8116 29.3049 29.2641 29.9809 29.8677C30.9844 30.7652 32.0352 31.9209 32.7133 33.442C32.4037 33.3212 32.1769 33.2897 32.1433 33.2897C32.0132 33.2897 31.3896 33.1627 31.3896 35.8238C31.3896 38.4827 32.2903 42.0948 32.2934 42.1053V42.1074C30.5194 46.4858 27.7376 47.9522 20.0022 48.0036C12.2637 47.9522 9.48193 46.4858 7.7079 42.1074V42.1053C7.71105 42.0948 8.61171 38.4827 8.61171 35.8238Z" fill="#FBBF24"/>
<path d="M28.9697 3.67383L28.9334 20.6557C28.9334 20.6557 25.9712 20.8555 20.8464 19.1664C15.7217 17.4773 14.5586 15.4249 14.5586 15.4249L28.9697 3.67383Z" fill="#F59E0B"/>
<path d="M31.3752 6.06573L29.7619 3.85659L31.898 5.27583L32.0957 3.94008L29.6918 2.79055H32.0957L31.898 1.95571L29.3156 2.30891L30.9671 0.966732L29.4877 0.536464L28.4866 2.30891L28.8883 0.350228H27.4536L28.3017 2.79055L27.1157 0.754809L26.3377 1.51902L27.8936 3.18229L25.783 2.30891L25.5534 3.46485L27.8362 3.79879L25.5534 4.34466L26.0763 5.37216L27.8362 4.34466L26.3377 5.98224L26.9116 6.4382L28.6524 4.83272L27.2368 7.00333L28.1614 7.43359L29.188 4.76208L28.8883 7.43359L29.7619 7.33084V4.5052L30.8268 6.72076L31.3752 6.06573Z" fill="#FCD34D"/>
</g>
<defs>
<clipPath id="clip0">
<rect width="40" height="48" fill="white"/>
</clipPath>
</defs>
</svg>
