<svg width="40" height="48" viewBox="0 0 40 48" fill="none" xmlns="http://www.w3.org/2000/svg">
<path d="M26.1715 22.0754C26.1957 22.3086 26.0581 22.5121 25.8639 22.5311C25.6708 22.5512 25.4954 22.3782 25.4713 22.1461C25.4482 21.9151 25.5847 21.7104 25.7778 21.6904C25.97 21.6714 26.1463 21.8434 26.1715 22.0754Z" fill="white"/>
<path d="M14.2237 21.6904C14.4158 21.7104 14.5523 21.9151 14.5292 22.1461C14.5051 22.3782 14.3298 22.5512 14.1366 22.5311C13.9424 22.5121 13.8059 22.3086 13.8311 22.0754C13.8553 21.8434 14.0306 21.6714 14.2237 21.6904Z" fill="white"/>
<path d="M25.4699 22.1461C25.4941 22.3782 25.6694 22.5512 25.8625 22.5311C26.0567 22.5121 26.1942 22.3085 26.1701 22.0754C26.1449 21.8434 25.9685 21.6714 25.7764 21.6904C25.5833 21.7104 25.4468 21.9151 25.4699 22.1461ZM24.965 22.6988C24.8842 21.913 25.3062 21.2252 25.9087 21.164C26.5112 21.1028 27.0655 21.6925 27.1463 22.4784C27.2282 23.2664 26.8051 23.9541 26.2037 24.0153C25.6001 24.0744 25.0469 23.4868 24.965 22.6988Z" fill="black"/>
<path d="M14.0923 21.164C14.6938 21.2252 15.1169 21.913 15.035 22.6988C14.9542 23.4868 14.3999 24.0744 13.7963 24.0153C13.1948 23.9541 12.7728 23.2664 12.8537 22.4784C12.9345 21.6925 13.4887 21.1028 14.0923 21.164ZM14.5301 22.1461C14.5532 21.9151 14.4167 21.7104 14.2246 21.6904C14.0315 21.6714 13.8561 21.8434 13.832 22.0754C13.8068 22.3085 13.9433 22.5121 14.1375 22.5311C14.3306 22.5512 14.5059 22.3782 14.5301 22.1461Z" fill="black"/>
<path d="M20.0017 23.2969C20.726 23.3327 21.6676 24.3212 22.2796 24.8623C22.9031 25.4161 23.0753 25.4794 23.5687 25.5638C24.0641 25.6492 24.4357 25.7758 24.1953 26.0733C24.0127 26.3011 23.428 27.048 21.7894 27.3876C21.3044 27.49 20.7281 27.5543 20.0416 27.5596H19.9587C19.2732 27.5522 18.6969 27.49 18.212 27.3876C16.5744 27.048 15.9897 26.3011 15.805 26.0733C15.5656 25.7758 15.9372 25.6492 16.4327 25.5638C16.9261 25.4794 17.0982 25.4161 17.7217 24.8623C18.3337 24.3212 19.2743 23.3327 20.0017 23.2969Z" fill="#FB923C"/>
<path d="M32.7124 33.274C33.5469 33.6011 34.9997 34.5831 34.9997 37.388C34.9997 41.2299 32.2925 41.982 32.2925 41.982V41.9799C32.2893 41.9693 31.3887 38.3395 31.3887 35.6675C31.3887 32.9934 32.0122 33.1211 32.1424 33.1211C32.176 33.1211 32.4027 33.1527 32.7124 33.274Z" fill="#F59E0B"/>
<path d="M8.61105 35.6675C8.61105 38.3395 7.71039 41.9693 7.70724 41.9799V41.982C7.70724 41.982 5 41.2299 5 37.388C5 34.5831 6.45387 33.6011 7.2884 33.274C7.59912 33.1527 7.82376 33.1211 7.85945 33.1211C7.98751 33.1211 8.61105 32.9934 8.61105 35.6675Z" fill="#F59E0B"/>
<path d="M15.0337 22.6988C15.1156 21.913 14.6925 21.2252 14.091 21.164C13.4874 21.1028 12.9332 21.6925 12.8524 22.4784C12.7715 23.2664 13.1935 23.9541 13.795 24.0153C14.3986 24.0744 14.9529 23.4868 15.0337 22.6988ZM26.2038 24.0153C26.8053 23.9541 27.2283 23.2664 27.1464 22.4784C27.0656 21.6925 26.5113 21.1028 25.9088 21.164C25.3063 21.2252 24.8843 21.913 24.9651 22.6988C25.047 23.4868 25.6002 24.0744 26.2038 24.0153ZM28.7389 22.0744C28.7882 22.5417 28.8113 23.0132 28.8113 23.4837C28.8113 25.6504 28.2287 27.1894 27.3459 28.2812C25.3629 30.7327 21.859 30.9374 20.001 30.9543C18.1398 30.9374 14.6369 30.7327 12.6529 28.2812C11.7711 27.1894 11.1875 25.6504 11.1875 23.4837C11.1875 21.8961 11.4468 20.2842 12.1438 18.8475C12.6813 17.741 13.479 16.7747 14.47 16.0458C15.3318 15.4086 16.3217 14.9572 17.3525 14.6766C18.8211 14.2799 20.3705 14.2251 21.8621 14.4983C22.8804 14.6871 23.8723 15.0342 24.7709 15.55C25.7954 16.1397 26.6824 16.953 27.3375 17.9414C28.1542 19.1682 28.5835 20.6144 28.7389 22.0744ZM20.0409 27.5597C20.7274 27.5544 21.3037 27.4901 21.7886 27.3877C23.4273 27.0481 24.012 26.3012 24.1946 26.0734C24.435 25.7759 24.0634 25.6493 23.5679 25.5639C23.0746 25.4795 22.9024 25.4162 22.2789 24.8624C21.6669 24.3212 20.7253 23.3328 20.001 23.297C19.2735 23.3328 18.333 24.3212 17.721 24.8624C17.0974 25.4162 16.9253 25.4795 16.4319 25.5639C15.9364 25.6493 15.5648 25.7759 15.8042 26.0734C15.9889 26.3012 16.5736 27.0481 18.2112 27.3877C18.6962 27.4901 19.2725 27.5523 19.9579 27.5597H20.0409Z" fill="#FCD34D"/>
<path d="M8.61171 35.6674C8.61171 32.9934 7.98818 33.121 7.86011 33.121C7.82442 33.121 7.59978 33.1526 7.28906 33.2739C7.96613 31.7454 9.01795 30.584 10.0236 29.6821C10.6975 29.0756 11.6129 28.6209 12.6542 28.2812C14.6382 30.7328 18.1411 30.9374 20.0022 30.9543C21.8602 30.9374 25.3642 30.7328 27.3471 28.2812C28.3906 28.6209 29.3049 29.0756 29.9809 29.6821C30.9844 30.584 32.0352 31.7454 32.7133 33.2739C32.4037 33.1526 32.1769 33.121 32.1433 33.121C32.0132 33.121 31.3896 32.9934 31.3896 35.6674C31.3896 38.3394 32.2903 41.9692 32.2934 41.9798V41.9819C30.5194 46.3818 27.7376 47.8554 20.0022 47.9071C12.2637 47.8554 9.48193 46.3818 7.7079 41.9819V41.9798C7.71105 41.9692 8.61171 38.3394 8.61171 35.6674Z" fill="#FBBF24"/>
<path fill-rule="evenodd" clip-rule="evenodd" d="M20.0295 14C19.5302 14 19.1067 14.1105 18.9589 14.2635C12.3186 14.8128 11.4336 20.2601 11.4336 20.2601C11.4336 20.2601 15.7225 20.609 20.0659 20.6618C24.4092 20.7147 28.5344 20.2601 28.5344 20.2601C28.5344 20.2601 27.7913 14.7703 21.094 14.2573C20.9408 14.1075 20.5221 14 20.0295 14ZM19.8301 16.3728C22.974 16.3545 23.1739 19.3842 23.1739 19.3842C23.1739 19.3842 22.6832 19.5486 19.9754 19.5668C17.2677 19.5851 16.7952 19.3842 16.7952 19.3842C16.7952 19.3842 16.6861 16.391 19.8301 16.3728ZM17.5762 20.3151C17.7066 20.3151 17.8124 20.217 17.8124 20.096C17.8124 19.9751 17.7066 19.877 17.5762 19.877C17.4457 19.877 17.3399 19.9751 17.3399 20.096C17.3399 20.217 17.4457 20.3151 17.5762 20.3151ZM18.9755 20.169C18.9755 20.29 18.8697 20.3881 18.7392 20.3881C18.6088 20.3881 18.503 20.29 18.503 20.169C18.503 20.0481 18.6088 19.95 18.7392 19.95C18.8697 19.95 18.9755 20.0481 18.9755 20.169ZM20.0477 20.4246C20.1782 20.4246 20.2839 20.3265 20.2839 20.2055C20.2839 20.0846 20.1782 19.9865 20.0477 19.9865C19.9172 19.9865 19.8114 20.0846 19.8114 20.2055C19.8114 20.3265 19.9172 20.4246 20.0477 20.4246ZM21.6287 20.169C21.6287 20.29 21.523 20.3881 21.3925 20.3881C21.262 20.3881 21.1562 20.29 21.1562 20.169C21.1562 20.0481 21.262 19.95 21.3925 19.95C21.523 19.95 21.6287 20.0481 21.6287 20.169ZM22.6282 20.2786C22.7587 20.2786 22.8645 20.1805 22.8645 20.0595C22.8645 19.9386 22.7587 19.8405 22.6282 19.8405C22.4978 19.8405 22.392 19.9386 22.392 20.0595C22.392 20.1805 22.4978 20.2786 22.6282 20.2786Z" fill="#5B7DF8"/>
<path d="M26.1715 22.1653C26.1957 22.3984 26.0581 22.602 25.8639 22.621C25.6708 22.641 25.4954 22.468 25.4713 22.2359C25.4482 22.0049 25.5847 21.8003 25.7778 21.7802C25.97 21.7613 26.1463 21.9332 26.1715 22.1653Z" fill="white"/>
<path d="M14.2237 21.7802C14.4158 21.8003 14.5523 22.0049 14.5292 22.2359C14.5051 22.468 14.3298 22.641 14.1366 22.621C13.9424 22.602 13.8059 22.3984 13.8311 22.1653C13.8553 21.9332 14.0306 21.7613 14.2237 21.7802Z" fill="white"/>
<path d="M25.4699 22.2359C25.4941 22.468 25.6694 22.641 25.8625 22.621C26.0567 22.602 26.1942 22.3984 26.1701 22.1653C26.1449 21.9332 25.9685 21.7613 25.7764 21.7802C25.5833 21.8003 25.4468 22.0049 25.4699 22.2359ZM24.965 22.7887C24.8842 22.0028 25.3062 21.3151 25.9087 21.2539C26.5112 21.1927 27.0655 21.7824 27.1463 22.5682C27.2282 23.3562 26.8051 24.044 26.2037 24.1051C25.6001 24.1642 25.0469 23.5767 24.965 22.7887Z" fill="black"/>
<path d="M14.0923 21.2539C14.6938 21.3151 15.1169 22.0028 15.035 22.7887C14.9542 23.5767 14.3999 24.1642 13.7963 24.1051C13.1948 24.044 12.7728 23.3562 12.8537 22.5682C12.9345 21.7824 13.4887 21.1927 14.0923 21.2539ZM14.5301 22.2359C14.5532 22.0049 14.4167 21.8003 14.2246 21.7802C14.0315 21.7613 13.8561 21.9332 13.832 22.1653C13.8068 22.3984 13.9433 22.602 14.1375 22.621C14.3306 22.641 14.5059 22.468 14.5301 22.2359Z" fill="black"/>
<path d="M20.0017 23.3867C20.726 23.4226 21.6676 24.411 22.2796 24.9521C22.9031 25.5059 23.0753 25.5692 23.5687 25.6536C24.0641 25.7391 24.4357 25.8657 24.1953 26.1631C24.0127 26.391 23.428 27.1378 21.7894 27.4775C21.3044 27.5798 20.7281 27.6442 20.0416 27.6494H19.9587C19.2732 27.6421 18.6969 27.5798 18.212 27.4775C16.5744 27.1378 15.9897 26.391 15.805 26.1631C15.5656 25.8657 15.9372 25.7391 16.4327 25.6536C16.9261 25.5692 17.0982 25.5059 17.7217 24.9521C18.3337 24.411 19.2743 23.4226 20.0017 23.3867Z" fill="#FB923C"/>
<path d="M32.7124 33.3639C33.5469 33.6909 34.9997 34.673 34.9997 37.4779C34.9997 41.3197 32.2925 42.0718 32.2925 42.0718V42.0697C32.2893 42.0592 31.3887 38.4294 31.3887 35.7574C31.3887 33.0833 32.0122 33.2109 32.1424 33.2109C32.176 33.2109 32.4027 33.2426 32.7124 33.3639Z" fill="#F59E0B"/>
<path d="M8.61105 35.7574C8.61105 38.4294 7.71039 42.0592 7.70724 42.0697V42.0718C7.70724 42.0718 5 41.3197 5 37.4779C5 34.673 6.45387 33.6909 7.2884 33.3639C7.59912 33.2426 7.82376 33.2109 7.85945 33.2109C7.98751 33.2109 8.61105 33.0833 8.61105 35.7574Z" fill="#F59E0B"/>
<path d="M15.0337 22.7887C15.1156 22.0028 14.6925 21.315 14.091 21.2538C13.4874 21.1927 12.9332 21.7823 12.8524 22.5682C12.7715 23.3562 13.1935 24.044 13.795 24.1052C14.3986 24.1642 14.9529 23.5767 15.0337 22.7887ZM26.2038 24.1052C26.8053 24.044 27.2283 23.3562 27.1464 22.5682C27.0656 21.7823 26.5113 21.1927 25.9088 21.2538C25.3063 21.315 24.8843 22.0028 24.9651 22.7887C25.047 23.5767 25.6002 24.1642 26.2038 24.1052ZM28.7389 22.1642C28.7882 22.6315 28.8113 23.103 28.8113 23.5735C28.8113 25.7402 28.2287 27.2793 27.3459 28.3711C25.3629 30.8226 21.859 31.0272 20.001 31.0441C18.1398 31.0272 14.6369 30.8226 12.6529 28.3711C11.7711 27.2793 11.1875 25.7402 11.1875 23.5735C11.1875 21.9859 11.4468 20.3741 12.1438 18.9374C12.6813 17.8308 13.479 16.8645 14.47 16.1356C15.3318 15.4985 16.3217 15.047 17.3525 14.7664C18.8211 14.3698 20.3705 14.3149 21.8621 14.5881C22.8804 14.7769 23.8723 15.124 24.7709 15.6398C25.7954 16.2295 26.6824 17.0428 27.3375 18.0312C28.1542 19.258 28.5835 20.7043 28.7389 22.1642ZM20.0409 27.6495C20.7274 27.6443 21.3037 27.5799 21.7886 27.4776C23.4273 27.1379 24.012 26.3911 24.1946 26.1632C24.435 25.8657 24.0634 25.7392 23.5679 25.6537C23.0746 25.5693 22.9024 25.506 22.2789 24.9522C21.6669 24.4111 20.7253 23.4227 20.001 23.3868C19.2735 23.4227 18.333 24.4111 17.721 24.9522C17.0974 25.506 16.9253 25.5693 16.4319 25.6537C15.9364 25.7392 15.5648 25.8657 15.8042 26.1632C15.9889 26.3911 16.5736 27.1379 18.2112 27.4776C18.6962 27.5799 19.2725 27.6421 19.9579 27.6495H20.0409Z" fill="#FCD34D"/>
<path d="M8.61171 35.7573C8.61171 33.0832 7.98818 33.2108 7.86011 33.2108C7.82442 33.2108 7.59978 33.2425 7.28906 33.3638C7.96613 31.8353 9.01795 30.6739 10.0236 29.772C10.6975 29.1654 11.6129 28.7108 12.6542 28.3711C14.6382 30.8226 18.1411 31.0273 20.0022 31.0441C21.8602 31.0273 25.3642 30.8226 27.3471 28.3711C28.3906 28.7108 29.3049 29.1654 29.9809 29.772C30.9844 30.6739 32.0352 31.8353 32.7133 33.3638C32.4037 33.2425 32.1769 33.2108 32.1433 33.2108C32.0132 33.2108 31.3896 33.0832 31.3896 35.7573C31.3896 38.4293 32.2903 42.0591 32.2934 42.0696V42.0717C30.5194 46.4716 27.7376 47.9452 20.0022 47.9969C12.2637 47.9452 9.48193 46.4716 7.7079 42.0717V42.0696C7.71105 42.0591 8.61171 38.4293 8.61171 35.7573Z" fill="#FBBF24"/>
<path fill-rule="evenodd" clip-rule="evenodd" d="M20.0295 14.0898C19.5302 14.0898 19.1067 14.2003 18.9589 14.3534C12.3186 14.9026 11.4336 20.3499 11.4336 20.3499C11.4336 20.3499 15.7225 20.6988 20.0659 20.7517C24.4092 20.8046 28.5344 20.3499 28.5344 20.3499C28.5344 20.3499 27.7913 14.8601 21.094 14.3472C20.9408 14.1974 20.5221 14.0898 20.0295 14.0898ZM19.8301 16.4626C22.974 16.4444 23.1739 19.474 23.1739 19.474C23.1739 19.474 22.6832 19.6384 19.9754 19.6567C17.2677 19.6749 16.7952 19.474 16.7952 19.474C16.7952 19.474 16.6861 16.4809 19.8301 16.4626ZM17.5762 20.4049C17.7066 20.4049 17.8124 20.3068 17.8124 20.1859C17.8124 20.0649 17.7066 19.9669 17.5762 19.9669C17.4457 19.9669 17.3399 20.0649 17.3399 20.1859C17.3399 20.3068 17.4457 20.4049 17.5762 20.4049ZM18.9755 20.2589C18.9755 20.3798 18.8697 20.4779 18.7392 20.4779C18.6088 20.4779 18.503 20.3798 18.503 20.2589C18.503 20.1379 18.6088 20.0399 18.7392 20.0399C18.8697 20.0399 18.9755 20.1379 18.9755 20.2589ZM20.0477 20.5144C20.1782 20.5144 20.2839 20.4164 20.2839 20.2954C20.2839 20.1744 20.1782 20.0764 20.0477 20.0764C19.9172 20.0764 19.8114 20.1744 19.8114 20.2954C19.8114 20.4164 19.9172 20.5144 20.0477 20.5144ZM21.6287 20.2589C21.6287 20.3798 21.523 20.4779 21.3925 20.4779C21.262 20.4779 21.1562 20.3798 21.1562 20.2589C21.1562 20.1379 21.262 20.0399 21.3925 20.0399C21.523 20.0399 21.6287 20.1379 21.6287 20.2589ZM22.6282 20.3684C22.7587 20.3684 22.8645 20.2703 22.8645 20.1494C22.8645 20.0284 22.7587 19.9304 22.6282 19.9304C22.4978 19.9304 22.392 20.0284 22.392 20.1494C22.392 20.2703 22.4978 20.3684 22.6282 20.3684Z" fill="#5B7DF8"/>
</svg>
