<svg width="40" height="48" viewBox="0 0 40 48" fill="none" xmlns="http://www.w3.org/2000/svg">
<g clip-path="url(#clip0)">
<path d="M26.1715 22.2798C26.1957 22.5119 26.0581 22.7147 25.8639 22.7336C25.6708 22.7535 25.4954 22.5813 25.4713 22.3502C25.4482 22.1202 25.5847 21.9164 25.7778 21.8964C25.97 21.8775 26.1463 22.0487 26.1715 22.2798Z" fill="white"/>
<path d="M14.2237 21.8964C14.4158 21.9164 14.5523 22.1202 14.5292 22.3502C14.5051 22.5813 14.3298 22.7535 14.1366 22.7336C13.9424 22.7147 13.8059 22.5119 13.8311 22.2798C13.8553 22.0487 14.0306 21.8775 14.2237 21.8964Z" fill="white"/>
<path d="M25.4699 22.3503C25.4941 22.5814 25.6694 22.7537 25.8625 22.7337C26.0567 22.7148 26.1942 22.5121 26.1701 22.28C26.1449 22.0489 25.9685 21.8777 25.7764 21.8966C25.5833 21.9166 25.4468 22.1203 25.4699 22.3503ZM24.965 22.9007C24.8842 22.1182 25.3062 21.4334 25.9087 21.3725C26.5112 21.3116 27.0655 21.8987 27.1463 22.6812C27.2282 23.4658 26.8051 24.1506 26.2037 24.2115C25.6001 24.2703 25.0469 23.6853 24.965 22.9007Z" fill="black"/>
<path d="M14.0923 21.3725C14.6938 21.4334 15.1169 22.1182 15.035 22.9007C14.9542 23.6853 14.3999 24.2703 13.7963 24.2115C13.1948 24.1506 12.7728 23.4658 12.8537 22.6812C12.9345 21.8987 13.4887 21.3116 14.0923 21.3725ZM14.5301 22.3503C14.5532 22.1203 14.4167 21.9166 14.2246 21.8966C14.0315 21.8777 13.8561 22.0489 13.832 22.28C13.8068 22.5121 13.9433 22.7148 14.1375 22.7337C14.3306 22.7537 14.5059 22.5814 14.5301 22.3503Z" fill="black"/>
<path d="M20.0017 23.4961C20.726 23.5318 21.6676 24.516 22.2796 25.0548C22.9031 25.6062 23.0753 25.6692 23.5687 25.7532C24.0641 25.8383 24.4357 25.9643 24.1953 26.2605C24.0127 26.4874 23.428 27.231 21.7894 27.5692C21.3044 27.6711 20.7281 27.7352 20.0416 27.7404H19.9587C19.2732 27.7331 18.6969 27.6711 18.212 27.5692C16.5744 27.231 15.9897 26.4874 15.805 26.2605C15.5656 25.9643 15.9372 25.8383 16.4327 25.7532C16.9261 25.6692 17.0982 25.6062 17.7217 25.0548C18.3337 24.516 19.2743 23.5318 20.0017 23.4961Z" fill="#FB923C"/>
<path d="M32.7124 33.4301C33.5469 33.7557 34.9997 34.7336 34.9997 37.5264C34.9997 41.3517 32.2925 42.1005 32.2925 42.1005V42.0984C32.2893 42.0879 31.3887 38.4738 31.3887 35.8133C31.3887 33.1507 32.0122 33.2778 32.1424 33.2778C32.176 33.2778 32.4027 33.3093 32.7124 33.4301Z" fill="#F59E0B"/>
<path d="M8.61105 35.8133C8.61105 38.4738 7.71039 42.0879 7.70724 42.0984V42.1005C7.70724 42.1005 5 41.3517 5 37.5264C5 34.7336 6.45387 33.7557 7.2884 33.4301C7.59912 33.3093 7.82376 33.2778 7.85945 33.2778C7.98751 33.2778 8.61105 33.1507 8.61105 35.8133Z" fill="#F59E0B"/>
<path d="M15.0337 22.9006C15.1156 22.1181 14.6925 21.4333 14.091 21.3723C13.4874 21.3114 12.9332 21.8986 12.8524 22.681C12.7715 23.4656 13.1935 24.1504 13.795 24.2114C14.3986 24.2702 14.9529 23.6851 15.0337 22.9006ZM26.2038 24.2114C26.8053 24.1504 27.2283 23.4656 27.1464 22.681C27.0656 21.8986 26.5113 21.3114 25.9088 21.3723C25.3063 21.4333 24.8843 22.1181 24.9651 22.9006C25.047 23.6851 25.6002 24.2702 26.2038 24.2114ZM28.7389 22.2788C28.7882 22.7441 28.8113 23.2136 28.8113 23.682C28.8113 25.8394 28.2287 27.3718 27.3459 28.4589C25.3629 30.8998 21.859 31.1036 20.001 31.1204C18.1398 31.1036 14.6369 30.8998 12.6529 28.4589C11.7711 27.3718 11.1875 25.8394 11.1875 23.682C11.1875 22.1013 11.4468 20.4964 12.1438 19.0658C12.6813 17.964 13.479 17.0019 14.47 16.2762C15.3318 15.6418 16.3217 15.1922 17.3525 14.9128C18.8211 14.5179 20.3705 14.4633 21.8621 14.7353C22.8804 14.9234 23.8723 15.2689 24.7709 15.7825C25.7954 16.3696 26.6824 17.1794 27.3375 18.1636C28.1542 19.3851 28.5835 20.8251 28.7389 22.2788ZM20.0409 27.7404C20.7274 27.7352 21.3037 27.6711 21.7886 27.5692C23.4273 27.231 24.012 26.4874 24.1946 26.2605C24.435 25.9644 24.0634 25.8383 23.5679 25.7532C23.0746 25.6692 22.9024 25.6062 22.2789 25.0548C21.6669 24.516 20.7253 23.5318 20.001 23.4961C19.2735 23.5318 18.333 24.516 17.721 25.0548C17.0974 25.6062 16.9253 25.6692 16.4319 25.7532C15.9364 25.8383 15.5648 25.9644 15.8042 26.2605C15.9889 26.4874 16.5736 27.231 18.2112 27.5692C18.6962 27.6711 19.2725 27.7331 19.9579 27.7404H20.0409Z" fill="#FCD34D"/>
<path d="M8.61171 35.8133C8.61171 33.1508 7.98818 33.2779 7.86011 33.2779C7.82442 33.2779 7.59978 33.3094 7.28906 33.4302C7.96613 31.9082 9.01795 30.7518 10.0236 29.8538C10.6975 29.2499 11.6129 28.7972 12.6542 28.459C14.6382 30.8999 18.1411 31.1037 20.0022 31.1205C21.8602 31.1037 25.3642 30.8999 27.3471 28.459C28.3906 28.7972 29.3049 29.2499 29.9809 29.8538C30.9844 30.7518 32.0352 31.9082 32.7133 33.4302C32.4037 33.3094 32.1769 33.2779 32.1433 33.2779C32.0132 33.2779 31.3896 33.1508 31.3896 35.8133C31.3896 38.4738 32.2903 42.088 32.2934 42.0985V42.1006C30.5194 46.4815 27.7376 47.9488 20.0022 48.0002C12.2637 47.9488 9.48193 46.4815 7.7079 42.1006V42.0985C7.71105 42.088 8.61171 38.4738 8.61171 35.8133Z" fill="#FBBF24"/>
<path d="M24.9724 17.4012L14.3594 17.5466V10.4592C14.3594 10.4592 16.0968 9.25977 19.993 9.25977C23.8892 9.25977 24.9724 10.4592 24.9724 10.4592V17.4012Z" fill="black"/>
<path d="M13.5964 15.6384C13.3056 15.4204 12.5607 15.8384 12.5605 15.9837C12.5604 16.1291 13.4144 18.7823 19.8114 18.6734C26.2084 18.5644 26.2448 15.911 26.2084 15.6384C26.1721 15.3658 25.6087 15.2932 25.318 15.5112C25.0272 15.7293 24.1367 17.4557 19.8114 17.4557C15.4861 17.4557 13.8873 15.8565 13.5964 15.6384Z" fill="#1F1F1F"/>
</g>
<defs>
<clipPath id="clip0">
<rect width="40" height="48" fill="white"/>
</clipPath>
</defs>
</svg>
