<?xml version="1.0" encoding="UTF-8" standalone="no"?>
<!DOCTYPE svg PUBLIC "-//W3C//DTD SVG 1.1//EN" "http://www.w3.org/Graphics/SVG/1.1/DTD/svg11.dtd">
<svg width="100%" height="100%" viewBox="0 0 4593 2551" version="1.1" xmlns="http://www.w3.org/2000/svg" xmlns:xlink="http://www.w3.org/1999/xlink" xml:space="preserve" xmlns:serif="http://www.serif.com/" style="fill-rule:evenodd;clip-rule:evenodd;stroke-linejoin:round;stroke-miterlimit:2;">
    <g transform="matrix(1,0,0,1,-63.8718,-412.988)">
        <g>
            <g id="base">
                <g transform="matrix(0.981887,0,0,1.3823,193.343,-854.386)">
                    <path d="M3413.98,1459.13L-131.86,2096.64L909.367,2484.34L4545.26,1696.34L3413.98,1459.13Z" style="fill:rgb(102,102,102);"/>
                </g>
                <path d="M4656.27,1519.61L1092.84,2630.44L1086.06,2963.2L4629.71,1778.15L4656.27,1519.61Z" style="fill:rgb(102,102,102);"/>
                <path d="M1064.67,2621.33L63.872,2078.89L78.028,2355.74L1058.35,2963.2L1064.67,2621.33Z" style="fill:rgb(102,102,102);"/>
            </g>
            <g id="v" transform="matrix(0.640197,0,0,0.517799,898.291,808.669)">
                <ellipse cx="3303.99" cy="1420.5" rx="31.052" ry="42.585" style="fill:rgb(140,140,140);"/>
            </g>
            <g transform="matrix(0.55327,0.863273,-0.889148,0.569853,2230.72,-1018.66)">
                <path d="M2011.67,1229.05C2078.3,1229.05 2135.36,1177.23 2135.36,1345.54C2135.36,1513.86 2109.53,1598.14 2042.91,1598.14C1976.28,1598.14 2044.69,1679.81 2044.69,1511.49C2044.69,1343.17 1945.04,1229.05 2011.67,1229.05Z" style="fill:rgb(153,153,153);"/>
            </g>
            <g transform="matrix(1,0,0,1.08418,-108.197,-80.9551)">
                <path d="M1769.12,847.419C1835.75,847.419 1987.32,1180.4 1987.32,1348.71C1987.32,1517.03 2178.8,1632.07 2112.17,1632.07C2045.54,1632.07 1858.48,1515.29 1858.48,1346.98C1858.48,1178.66 1702.49,847.419 1769.12,847.419Z" style="fill:rgb(230,230,230);"/>
            </g>
            <g transform="matrix(1,0,0,1.08418,1703.71,-365.492)">
                <path d="M2174.16,773.585C2218.45,773.585 2033.09,1178.56 1984.9,1236.18C1904.66,1332.14 1869.32,1455.17 1837.2,1503.22C1722.15,1675.26 1641.01,1670.36 1581.84,1641.41C1522.98,1612.61 1676.69,1537.91 1731.96,1457.61C1778.42,1390.12 1885.42,1090.2 1958.64,943.223C2039.58,780.743 2139.18,773.585 2174.16,773.585Z" style="fill:rgb(230,230,230);"/>
            </g>
            <g id="left-circle" serif:id="left circle">
                <g transform="matrix(1.2424,0,0,1.18775,-508.974,-194.576)">
                    <path d="M1393.81,747.876C1622.43,747.876 1785.89,968.329 1785.89,1264.35C1785.89,1560.36 1552.16,1850.75 1324.43,1830.48C1091.58,1809.76 973.49,1574.76 981.743,1319.22C991.299,1023.35 1165.18,747.876 1393.81,747.876Z" style="fill:rgb(217,217,217);"/>
                </g>
                <g transform="matrix(1.2424,0,0,1.18775,-392.436,-194.576)">
                    <path d="M1393.81,747.876C1622.43,747.876 1785.89,968.329 1785.89,1264.35C1785.89,1560.36 1552.16,1850.75 1324.43,1830.48C1091.58,1809.76 973.49,1574.76 981.743,1319.22C991.299,1023.35 1165.18,747.876 1393.81,747.876Z" style="fill:rgb(179,179,179);"/>
                </g>
                <g transform="matrix(0.49076,0,0,0.464609,665.896,772.791)">
                    <path d="M1393.81,747.876C1622.43,747.876 1785.89,968.329 1785.89,1264.35C1785.89,1560.36 1552.16,1850.75 1324.43,1830.48C1091.58,1809.76 973.49,1574.76 981.743,1319.22C991.299,1023.35 1165.18,747.876 1393.81,747.876Z" style="fill:rgb(217,217,217);"/>
                </g>
                <g transform="matrix(0.643729,0,0,0.810271,515.782,623.253)">
                    <path d="M1393.81,747.876C1622.43,747.876 1759.02,969.1 1785.89,1264.35C1812.63,1558.18 1936.58,1987.79 1777.06,2076.04C1685.27,2126.82 982.416,2172.63 924.823,2086.15C861.774,1991.47 977.43,1452.77 981.743,1319.22C991.299,1023.35 1165.18,747.876 1393.81,747.876Z" style="fill:rgb(64,64,64);"/>
                </g>
                <g transform="matrix(0.201479,0,0,0.190743,1182.52,1229.34)">
                    <path d="M1393.81,747.876C1622.43,747.876 1785.89,968.329 1785.89,1264.35C1785.89,1560.36 1552.16,1850.75 1324.43,1830.48C1091.58,1809.76 973.49,1574.76 981.743,1319.22C991.299,1023.35 1165.18,747.876 1393.81,747.876Z" style="fill:rgb(217,217,217);"/>
                </g>
                <path d="M1495.96,1519.61L1439.26,1519.61L1542.34,2320.36L1679.28,2292.65L1495.96,1519.61Z" style="fill:rgb(115,115,115);"/>
            </g>
            <g id="right-circle" serif:id="right circle">
                <g transform="matrix(0.612163,0,0,0.534075,3061.61,73.7898)">
                    <path d="M1393.81,747.876C1622.43,747.876 1785.89,968.329 1785.89,1264.35C1785.89,1560.36 1552.16,1850.75 1324.43,1830.48C1091.58,1809.76 973.49,1574.76 981.743,1319.22C991.299,1023.35 1165.18,747.876 1393.81,747.876Z" style="fill:rgb(140,140,140);"/>
                </g>
                <g transform="matrix(0.463601,0,0,0.443435,3347.2,180.558)">
                    <path d="M1393.81,747.876C1622.43,747.876 1785.89,968.329 1785.89,1264.35C1785.89,1560.36 1552.16,1850.75 1324.43,1830.48C1091.58,1809.76 973.49,1574.76 981.743,1319.22C991.299,1023.35 1165.18,747.876 1393.81,747.876Z" style="fill:rgb(217,217,217);"/>
                </g>
                <g transform="matrix(0.462445,0.0287779,-0.0411016,0.660481,3436.49,123.238)">
                    <path d="M1393.81,747.876C1622.43,747.876 1759.02,969.1 1785.89,1264.35C1812.63,1558.18 1936.58,1987.79 1777.06,2076.04C1685.27,2126.82 982.416,2172.63 924.823,2086.15C861.774,1991.47 977.43,1452.77 981.743,1319.22C991.299,1023.35 1165.18,747.876 1393.81,747.876Z" style="fill:rgb(64,64,64);"/>
                </g>
                <g transform="matrix(0.690285,0,0,0.825978,3078.64,-346.237)">
                    <path d="M1495.96,1519.61L1439.26,1519.61L1542.34,2320.36L1679.28,2292.65L1495.96,1519.61Z" style="fill:rgb(115,115,115);"/>
                </g>
                <g transform="matrix(0.174647,0,0,0.139479,3863.24,690.505)">
                    <path d="M1393.81,747.876C1622.43,747.876 1785.89,968.329 1785.89,1264.35C1785.89,1560.36 1552.16,1850.75 1324.43,1830.48C1091.58,1809.76 973.49,1574.76 981.743,1319.22C991.299,1023.35 1165.18,747.876 1393.81,747.876Z" style="fill:rgb(217,217,217);"/>
                </g>
            </g>
            <g transform="matrix(0.999842,0.0178019,-0.0178019,0.999842,-5.86148,-46.8994)">
                <path d="M2360.07,594.511L2289.72,594.511L2289.72,1830.12L2313.47,1840.29L2340.4,1840.69L2360.07,1830.12L2360.07,594.511Z" style="fill:rgb(217,217,217);"/>
            </g>
            <g transform="matrix(0.923102,0.384555,-0.384555,0.923102,628.306,-871.773)">
                <path d="M2700.84,1094.76L2327.77,1108.97L2253.72,1166.25L2631.2,1131.99L2700.84,1094.76Z" style="fill:rgb(102,102,102);"/>
            </g>
            <g transform="matrix(0.999842,0.0178019,-0.0115684,0.649738,406.936,57.2515)">
                <path d="M2360.07,594.511L2289.72,594.511L2289.72,1830.12L2313.47,1840.29L2340.4,1840.69L2360.07,1830.12L2360.07,594.511Z" style="fill:rgb(217,217,217);"/>
            </g>
            <g transform="matrix(1,0,0,1,-226.704,-68.2064)">
                <path d="M2956.98,1057.66L2879.38,1074.16L2880.9,1142.12L2953.42,1123.75L2956.98,1057.66Z" style="fill:rgb(77,77,77);"/>
                <g transform="matrix(1.25417,0,0,0.678674,-730.34,335.382)">
                    <path d="M2879.38,1071.84L2712.27,1042.39L2710.85,1144.25L2879.38,1188.69L2879.38,1071.84Z" style="fill:rgb(51,51,51);"/>
                </g>
                <g transform="matrix(1,0,0,1,8.11813,-144.945)">
                    <path d="M2948.86,1202.61L2855.23,1188.69L2692.69,1188.69L2881.15,1221.97L2948.86,1202.61Z" style="fill:rgb(89,89,89);"/>
                </g>
            </g>
            <g transform="matrix(0.999842,0.0178019,-0.0114876,0.645201,301.324,247.1)">
                <path d="M2360.07,594.511L2289.72,594.511L2289.72,1830.12L2313.47,1840.29L2340.4,1840.69L2360.07,1830.12L2360.07,594.511Z" style="fill:rgb(217,217,217);"/>
            </g>
            <g transform="matrix(0.999528,0.0307077,-0.0202519,0.659196,729.014,103.107)">
                <path d="M2360.07,594.511L2289.72,594.511L2289.72,1830.12L2313.47,1840.29L2340.4,1840.69L2360.07,1830.12L2360.07,594.511Z" style="fill:rgb(217,217,217);"/>
            </g>
            <g transform="matrix(0.999842,0.0178019,-0.0178019,0.999842,576.435,-150.889)">
                <path d="M2360.07,594.511L2289.72,594.511L2289.72,1830.12L2313.47,1840.29L2340.4,1840.69L2360.07,1830.12L2360.07,594.511Z" style="fill:rgb(217,217,217);"/>
            </g>
            <g transform="matrix(0.986415,0.41093,-0.411702,0.988269,987.372,-1147.29)">
                <path d="M2716.56,1071.05L2310.24,1118.06L2235.72,1154.44L2643.29,1118.28L2716.56,1071.05Z" style="fill:rgb(102,102,102);"/>
            </g>
            <g transform="matrix(0.999528,0.0307077,-0.0307077,0.999528,885.374,-99.2249)">
                <path d="M2360.07,594.511L2289.72,594.511L2289.72,1830.12L2313.47,1840.29L2340.4,1840.69L2360.07,1830.12L2360.07,594.511Z" style="fill:rgb(217,217,217);"/>
            </g>
            <g id="box">
                <g transform="matrix(0.953023,0.302898,-0.302898,0.953023,562.967,-632.619)">
                    <path d="M2484.64,1468.63L2100.34,1484.51L2134.2,1580.01L2522.18,1599.42L2484.64,1468.63Z" style="fill:rgb(204,204,204);"/>
                </g>
                <path d="M3309.54,1342.92L2486.04,1519.61L2486.04,1655.63L3312.19,1446.04L3309.54,1342.92Z" style="fill:rgb(166,166,166);"/>
                <path d="M2882.26,1256.85L2114.98,1418.34L2486.04,1516.75L3312.19,1342.92L2882.26,1256.85Z" style="fill:rgb(179,179,179);"/>
            </g>
            <path d="M3050.74,1570.33L2581.85,1688.5L2576.32,1960.39L3049.82,1825.71L3050.74,1570.33Z" style="fill:rgb(89,89,89);"/>
            <path d="M2956.98,1057.66L2879.38,1074.16L2879.38,1181.55L2949.34,1173.86L2956.98,1057.66Z" style="fill:rgb(77,77,77);"/>
            <g id="box-top" serif:id="box top" transform="matrix(0.837181,0,0,0.424337,471.362,-49.0368)">
                <g transform="matrix(0.953023,0.302898,-0.302898,0.953023,562.967,-632.619)">
                    <path d="M2601.7,1618.49L2109.23,1512.49L2130.14,1578.29L2627.86,1695.64L2601.7,1618.49Z" style="fill:rgb(217,217,217);"/>
                </g>
                <path d="M3335.18,1447.7L2553.77,1697.89L2553.77,1779.33L3336.2,1516.75L3335.18,1447.7Z" style="fill:rgb(204,204,204);"/>
                <path d="M2883.58,1174.64L2114.98,1418.34L2553.77,1697.89L3336.2,1410.6L2883.58,1174.64Z" style="fill:rgb(230,230,230);"/>
                <g transform="matrix(1.19448,0,0,2.35662,-563.034,115.561)">
                    <g transform="matrix(1,0,0,1,-3.33013,17.0088)">
                        <ellipse cx="2326.43" cy="518.709" rx="47.814" ry="16.305" style="fill:rgb(77,77,77);"/>
                    </g>
                    <g transform="matrix(1,0,0,1,-3.33013,2.00876)">
                        <ellipse cx="2326.43" cy="518.709" rx="47.814" ry="16.305" style="fill:rgb(115,115,115);"/>
                    </g>
                </g>
                <g transform="matrix(1.19448,0,0,2.35662,-202.429,321.196)">
                    <g transform="matrix(1,0,0,1,-3.33013,17.0088)">
                        <ellipse cx="2326.43" cy="518.709" rx="47.814" ry="16.305" style="fill:rgb(77,77,77);"/>
                    </g>
                    <g transform="matrix(1,0,0,1,-3.33013,2.00876)">
                        <ellipse cx="2326.43" cy="518.709" rx="47.814" ry="16.305" style="fill:rgb(115,115,115);"/>
                    </g>
                </g>
                <g transform="matrix(1.19448,0,0,2.35662,283.816,153.987)">
                    <g transform="matrix(1,0,0,1,-3.33013,17.0088)">
                        <ellipse cx="2326.43" cy="518.709" rx="47.814" ry="16.305" style="fill:rgb(77,77,77);"/>
                    </g>
                    <g transform="matrix(1,0,0,1,-3.33013,2.00876)">
                        <ellipse cx="2326.43" cy="518.709" rx="47.814" ry="16.305" style="fill:rgb(115,115,115);"/>
                    </g>
                </g>
                <g transform="matrix(1.19448,0,0,2.35662,483.528,78.045)">
                    <g transform="matrix(1,0,0,1,-3.33013,17.0088)">
                        <ellipse cx="2326.43" cy="518.709" rx="47.814" ry="16.305" style="fill:rgb(77,77,77);"/>
                    </g>
                    <g transform="matrix(1,0,0,1,-3.33013,2.00876)">
                        <ellipse cx="2326.43" cy="518.709" rx="47.814" ry="16.305" style="fill:rgb(115,115,115);"/>
                    </g>
                </g>
                <g transform="matrix(1.19448,0,0,2.35662,111.963,-99.8898)">
                    <g transform="matrix(1,0,0,1,-3.33013,17.0088)">
                        <ellipse cx="2326.43" cy="518.709" rx="47.814" ry="16.305" style="fill:rgb(77,77,77);"/>
                    </g>
                    <g transform="matrix(1,0,0,1,-3.33013,2.00876)">
                        <ellipse cx="2326.43" cy="518.709" rx="47.814" ry="16.305" style="fill:rgb(115,115,115);"/>
                    </g>
                </g>
                <g transform="matrix(1.19448,0,0,2.35662,-83.7975,-43.7897)">
                    <g transform="matrix(1,0,0,1,-3.33013,17.0088)">
                        <ellipse cx="2326.43" cy="518.709" rx="47.814" ry="16.305" style="fill:rgb(77,77,77);"/>
                    </g>
                    <g transform="matrix(1,0,0,1,-3.33013,2.00876)">
                        <ellipse cx="2326.43" cy="518.709" rx="47.814" ry="16.305" style="fill:rgb(115,115,115);"/>
                    </g>
                </g>
            </g>
            <path d="M2891.14,1221.86L2742.72,1194.1L2713.59,1308.07L2846.93,1356.21L2891.14,1221.86Z" style="fill:rgb(51,51,51);"/>
            <path d="M2971.7,1194.1L2859.79,1162.56L2717.44,1194.1L2859.79,1214.82L2971.7,1194.1Z" style="fill:rgb(89,89,89);"/>
            <g transform="matrix(1.0953,0,0,0.994304,-430.348,-39.4068)">
                <ellipse cx="2903.51" cy="1303.68" rx="68.248" ry="63.101" style="fill:rgb(51,51,51);"/>
            </g>
            <g transform="matrix(1.08875,0,0,1.12038,-301.405,-175.1)">
                <ellipse cx="2903.51" cy="1303.68" rx="68.248" ry="63.101" style="fill:rgb(102,102,102);"/>
            </g>
            <path d="M2879.38,1071.84L2705.28,1043.75L2700.81,1162.56L2879.38,1188.69L2879.38,1071.84Z" style="fill:rgb(51,51,51);"/>
            <g transform="matrix(1,0,0,1,-62.1034,-12.8217)">
                <ellipse cx="3303.99" cy="1420.5" rx="31.052" ry="42.585" style="fill:rgb(102,102,102);"/>
            </g>
            <path d="M3265.28,1444.23L2873.41,1745.55L2873.41,1777.7L3290.68,1449.67L3265.28,1444.23Z" style="fill:rgb(38,38,38);"/>
            <g transform="matrix(1.10101,0,0,1.11982,-350.112,-239.36)">
                <path d="M3265.28,1444.23L2873.41,1745.55L2873.41,1777.7L3290.68,1449.67L3265.28,1444.23Z" style="fill:rgb(38,38,38);"/>
            </g>
            <g transform="matrix(0.840846,0.158913,-0.221368,1.17131,789.798,-772.38)">
                <ellipse cx="2842.43" cy="1801.44" rx="62.354" ry="69.707" style="fill:rgb(38,38,38);"/>
            </g>
            <g transform="matrix(0.840846,0.158913,-0.221368,1.17131,827.481,-772.38)">
                <ellipse cx="2842.43" cy="1801.44" rx="62.354" ry="69.707" style="fill:rgb(102,102,102);"/>
            </g>
            <g transform="matrix(1,0,0,1,8.11813,-144.945)">
                <path d="M2948.86,1202.61L2855.23,1188.69L2692.69,1188.69L2881.15,1221.97L2948.86,1202.61Z" style="fill:rgb(89,89,89);"/>
            </g>
            <g transform="matrix(1.21234,0,0,1.15054,-720.021,-220.255)">
                <ellipse cx="3303.99" cy="1420.5" rx="31.052" ry="42.585" style="fill:rgb(140,140,140);"/>
            </g>
            <g transform="matrix(0.98865,0,0,1.03998,-663.077,101.059)">
                <ellipse cx="3303.99" cy="1420.5" rx="31.052" ry="42.585" style="fill:rgb(115,115,115);"/>
            </g>
            <path d="M3001.85,1534.06L2647.64,1546.03L2654.58,1554.34L3003.51,1543.15L3001.85,1534.06Z" style="fill:rgb(38,38,38);"/>
            <g transform="matrix(0.997501,-0.0706478,0.0706478,0.997501,-102.034,237.625)">
                <path d="M3001.85,1534.06L2647.64,1546.03L2654.58,1554.34L3003.51,1543.15L3001.85,1534.06Z" style="fill:rgb(38,38,38);"/>
            </g>
            <g transform="matrix(0.98865,0,0,1.03998,-618.852,101.059)">
                <ellipse cx="3303.99" cy="1420.5" rx="31.052" ry="42.585" style="fill:rgb(140,140,140);"/>
            </g>
        </g>
    </g>
</svg>
